<mxfile host="drawio.internal.loganmarchione.xyz" modified="2023-05-10T21:25:47.784Z" agent="Mozilla/5.0 (X11; Linux x86_64) AppleWebKit/537.36 (KHTML, like Gecko) Chrome/113.0.0.0 Safari/537.36" etag="zp5C_EGbkSAHlGhR6xYN" version="21.2.9" type="device" pages="2">
  <diagram name="cell" id="xPLynU5R0wBmfnlWDlQL">
    <mxGraphModel dx="2963" dy="2753" grid="1" gridSize="10" guides="1" tooltips="1" connect="1" arrows="1" fold="1" page="1" pageScale="1" pageWidth="850" pageHeight="1100" math="0" shadow="0">
      <root>
        <mxCell id="0" />
        <mxCell id="1" parent="0" />
        <mxCell id="g6K8wqPVC6uGbXdWG6wS-1" value="" style="fontColor=#0066CC;verticalAlign=top;verticalLabelPosition=bottom;labelPosition=center;align=center;html=1;outlineConnect=0;fillColor=#CCCCCC;strokeColor=#6881B3;gradientColor=none;gradientDirection=north;strokeWidth=2;shape=mxgraph.networks.radio_tower;" vertex="1" parent="1">
          <mxGeometry x="315.71" y="400" width="55" height="100" as="geometry" />
        </mxCell>
        <mxCell id="g6K8wqPVC6uGbXdWG6wS-7" value="" style="sketch=0;pointerEvents=1;shadow=0;dashed=0;html=1;strokeColor=none;fillColor=#505050;labelPosition=center;verticalLabelPosition=bottom;verticalAlign=top;outlineConnect=0;align=center;shape=mxgraph.office.devices.cell_phone_android_standalone;aspect=fixed;" vertex="1" parent="1">
          <mxGeometry x="326.85" y="220" width="32.73" height="60" as="geometry" />
        </mxCell>
        <mxCell id="g6K8wqPVC6uGbXdWG6wS-8" value="" style="sketch=0;pointerEvents=1;shadow=0;dashed=0;html=1;strokeColor=none;fillColor=#505050;labelPosition=center;verticalLabelPosition=bottom;verticalAlign=top;outlineConnect=0;align=center;shape=mxgraph.office.devices.cell_phone_generic;aspect=fixed;" vertex="1" parent="1">
          <mxGeometry x="150" y="420" width="33.19" height="60" as="geometry" />
        </mxCell>
        <mxCell id="g6K8wqPVC6uGbXdWG6wS-10" value="" style="sketch=0;pointerEvents=1;shadow=0;dashed=0;html=1;strokeColor=none;fillColor=#505050;labelPosition=center;verticalLabelPosition=bottom;verticalAlign=top;outlineConnect=0;align=center;shape=mxgraph.office.devices.cell_phone_iphone_standalone;aspect=fixed;" vertex="1" parent="1">
          <mxGeometry x="325.36" y="620" width="35.71" height="60" as="geometry" />
        </mxCell>
        <mxCell id="g6K8wqPVC6uGbXdWG6wS-11" value="" style="sketch=0;pointerEvents=1;shadow=0;dashed=0;html=1;strokeColor=none;fillColor=#505050;labelPosition=center;verticalLabelPosition=bottom;verticalAlign=top;outlineConnect=0;align=center;shape=mxgraph.office.devices.cell_phone_windows_phone_standalone;aspect=fixed;" vertex="1" parent="1">
          <mxGeometry x="500" y="420" width="34.29" height="60" as="geometry" />
        </mxCell>
        <mxCell id="g6K8wqPVC6uGbXdWG6wS-12" value="" style="endArrow=none;dashed=1;html=1;dashPattern=1 3;strokeWidth=2;rounded=0;" edge="1" parent="1" source="g6K8wqPVC6uGbXdWG6wS-1" target="g6K8wqPVC6uGbXdWG6wS-11">
          <mxGeometry width="50" height="50" relative="1" as="geometry">
            <mxPoint x="380" y="610" as="sourcePoint" />
            <mxPoint x="430" y="560" as="targetPoint" />
          </mxGeometry>
        </mxCell>
        <mxCell id="g6K8wqPVC6uGbXdWG6wS-13" value="" style="endArrow=none;dashed=1;html=1;dashPattern=1 3;strokeWidth=2;rounded=0;" edge="1" parent="1" source="g6K8wqPVC6uGbXdWG6wS-1" target="g6K8wqPVC6uGbXdWG6wS-8">
          <mxGeometry width="50" height="50" relative="1" as="geometry">
            <mxPoint x="381" y="460" as="sourcePoint" />
            <mxPoint x="510" y="460" as="targetPoint" />
          </mxGeometry>
        </mxCell>
        <mxCell id="g6K8wqPVC6uGbXdWG6wS-14" value="" style="endArrow=none;dashed=1;html=1;dashPattern=1 3;strokeWidth=2;rounded=0;" edge="1" parent="1" source="g6K8wqPVC6uGbXdWG6wS-10" target="g6K8wqPVC6uGbXdWG6wS-1">
          <mxGeometry width="50" height="50" relative="1" as="geometry">
            <mxPoint x="326" y="460" as="sourcePoint" />
            <mxPoint x="193" y="460" as="targetPoint" />
          </mxGeometry>
        </mxCell>
        <mxCell id="g6K8wqPVC6uGbXdWG6wS-15" value="" style="endArrow=none;dashed=1;html=1;dashPattern=1 3;strokeWidth=2;rounded=0;" edge="1" parent="1" source="g6K8wqPVC6uGbXdWG6wS-1" target="g6K8wqPVC6uGbXdWG6wS-7">
          <mxGeometry width="50" height="50" relative="1" as="geometry">
            <mxPoint x="353" y="630" as="sourcePoint" />
            <mxPoint x="353" y="510" as="targetPoint" />
          </mxGeometry>
        </mxCell>
        <mxCell id="8CCgLNO5WZxzkeO-txTk-28" value="" style="fontColor=#0066CC;verticalAlign=top;verticalLabelPosition=bottom;labelPosition=center;align=center;html=1;outlineConnect=0;fillColor=#CCCCCC;strokeColor=#6881B3;gradientColor=none;gradientDirection=north;strokeWidth=2;shape=mxgraph.networks.radio_tower;" vertex="1" parent="1">
          <mxGeometry x="316.78" y="-320" width="55" height="100" as="geometry" />
        </mxCell>
        <mxCell id="8CCgLNO5WZxzkeO-txTk-29" value="" style="sketch=0;pointerEvents=1;shadow=0;dashed=0;html=1;strokeColor=none;fillColor=#505050;labelPosition=center;verticalLabelPosition=bottom;verticalAlign=top;outlineConnect=0;align=center;shape=mxgraph.office.devices.cell_phone_android_standalone;aspect=fixed;" vertex="1" parent="1">
          <mxGeometry x="327.92" y="-500" width="32.73" height="60" as="geometry" />
        </mxCell>
        <mxCell id="8CCgLNO5WZxzkeO-txTk-30" value="" style="sketch=0;pointerEvents=1;shadow=0;dashed=0;html=1;strokeColor=none;fillColor=#505050;labelPosition=center;verticalLabelPosition=bottom;verticalAlign=top;outlineConnect=0;align=center;shape=mxgraph.office.devices.cell_phone_generic;aspect=fixed;" vertex="1" parent="1">
          <mxGeometry x="151.07" y="-300" width="33.19" height="60" as="geometry" />
        </mxCell>
        <mxCell id="8CCgLNO5WZxzkeO-txTk-31" value="" style="sketch=0;pointerEvents=1;shadow=0;dashed=0;html=1;strokeColor=none;fillColor=#505050;labelPosition=center;verticalLabelPosition=bottom;verticalAlign=top;outlineConnect=0;align=center;shape=mxgraph.office.devices.cell_phone_iphone_standalone;aspect=fixed;" vertex="1" parent="1">
          <mxGeometry x="326.43" y="-100" width="35.71" height="60" as="geometry" />
        </mxCell>
        <mxCell id="8CCgLNO5WZxzkeO-txTk-32" value="" style="sketch=0;pointerEvents=1;shadow=0;dashed=0;html=1;strokeColor=none;fillColor=#505050;labelPosition=center;verticalLabelPosition=bottom;verticalAlign=top;outlineConnect=0;align=center;shape=mxgraph.office.devices.cell_phone_windows_phone_standalone;aspect=fixed;" vertex="1" parent="1">
          <mxGeometry x="501.06999999999994" y="-300" width="34.29" height="60" as="geometry" />
        </mxCell>
        <mxCell id="8CCgLNO5WZxzkeO-txTk-33" value="" style="endArrow=none;dashed=1;html=1;dashPattern=1 3;strokeWidth=2;rounded=0;" edge="1" parent="1" source="8CCgLNO5WZxzkeO-txTk-28" target="8CCgLNO5WZxzkeO-txTk-32">
          <mxGeometry width="50" height="50" relative="1" as="geometry">
            <mxPoint x="381.07" y="-110" as="sourcePoint" />
            <mxPoint x="431.07" y="-160" as="targetPoint" />
          </mxGeometry>
        </mxCell>
        <mxCell id="8CCgLNO5WZxzkeO-txTk-34" value="" style="endArrow=none;dashed=1;html=1;dashPattern=1 3;strokeWidth=2;rounded=0;" edge="1" parent="1" source="8CCgLNO5WZxzkeO-txTk-28" target="8CCgLNO5WZxzkeO-txTk-30">
          <mxGeometry width="50" height="50" relative="1" as="geometry">
            <mxPoint x="382.07" y="-260" as="sourcePoint" />
            <mxPoint x="511.06999999999994" y="-260" as="targetPoint" />
          </mxGeometry>
        </mxCell>
        <mxCell id="8CCgLNO5WZxzkeO-txTk-35" value="" style="endArrow=none;dashed=1;html=1;dashPattern=1 3;strokeWidth=2;rounded=0;" edge="1" parent="1" source="8CCgLNO5WZxzkeO-txTk-31" target="8CCgLNO5WZxzkeO-txTk-28">
          <mxGeometry width="50" height="50" relative="1" as="geometry">
            <mxPoint x="327.07" y="-260" as="sourcePoint" />
            <mxPoint x="194.07" y="-260" as="targetPoint" />
          </mxGeometry>
        </mxCell>
        <mxCell id="8CCgLNO5WZxzkeO-txTk-36" value="" style="endArrow=none;dashed=1;html=1;dashPattern=1 3;strokeWidth=2;rounded=0;" edge="1" parent="1" source="8CCgLNO5WZxzkeO-txTk-28" target="8CCgLNO5WZxzkeO-txTk-29">
          <mxGeometry width="50" height="50" relative="1" as="geometry">
            <mxPoint x="354.07" y="-90" as="sourcePoint" />
            <mxPoint x="354.07" y="-210" as="targetPoint" />
          </mxGeometry>
        </mxCell>
        <mxCell id="8CCgLNO5WZxzkeO-txTk-37" value="" style="fontColor=#0066CC;verticalAlign=top;verticalLabelPosition=bottom;labelPosition=center;align=center;html=1;outlineConnect=0;fillColor=#CCCCCC;strokeColor=#6881B3;gradientColor=none;gradientDirection=north;strokeWidth=2;shape=mxgraph.networks.radio_tower;" vertex="1" parent="1">
          <mxGeometry x="1045.71" y="-320" width="55" height="100" as="geometry" />
        </mxCell>
        <mxCell id="8CCgLNO5WZxzkeO-txTk-38" value="" style="sketch=0;pointerEvents=1;shadow=0;dashed=0;html=1;strokeColor=none;fillColor=#505050;labelPosition=center;verticalLabelPosition=bottom;verticalAlign=top;outlineConnect=0;align=center;shape=mxgraph.office.devices.cell_phone_android_standalone;aspect=fixed;" vertex="1" parent="1">
          <mxGeometry x="1056.85" y="-500" width="32.73" height="60" as="geometry" />
        </mxCell>
        <mxCell id="8CCgLNO5WZxzkeO-txTk-39" value="" style="sketch=0;pointerEvents=1;shadow=0;dashed=0;html=1;strokeColor=none;fillColor=#505050;labelPosition=center;verticalLabelPosition=bottom;verticalAlign=top;outlineConnect=0;align=center;shape=mxgraph.office.devices.cell_phone_generic;aspect=fixed;" vertex="1" parent="1">
          <mxGeometry x="880" y="-300" width="33.19" height="60" as="geometry" />
        </mxCell>
        <mxCell id="8CCgLNO5WZxzkeO-txTk-40" value="" style="sketch=0;pointerEvents=1;shadow=0;dashed=0;html=1;strokeColor=none;fillColor=#505050;labelPosition=center;verticalLabelPosition=bottom;verticalAlign=top;outlineConnect=0;align=center;shape=mxgraph.office.devices.cell_phone_iphone_standalone;aspect=fixed;" vertex="1" parent="1">
          <mxGeometry x="1055.36" y="-100" width="35.71" height="60" as="geometry" />
        </mxCell>
        <mxCell id="8CCgLNO5WZxzkeO-txTk-41" value="" style="sketch=0;pointerEvents=1;shadow=0;dashed=0;html=1;strokeColor=none;fillColor=#505050;labelPosition=center;verticalLabelPosition=bottom;verticalAlign=top;outlineConnect=0;align=center;shape=mxgraph.office.devices.cell_phone_windows_phone_standalone;aspect=fixed;" vertex="1" parent="1">
          <mxGeometry x="1230" y="-300" width="34.29" height="60" as="geometry" />
        </mxCell>
        <mxCell id="8CCgLNO5WZxzkeO-txTk-42" value="" style="endArrow=none;dashed=1;html=1;dashPattern=1 3;strokeWidth=2;rounded=0;" edge="1" parent="1" source="8CCgLNO5WZxzkeO-txTk-37" target="8CCgLNO5WZxzkeO-txTk-41">
          <mxGeometry width="50" height="50" relative="1" as="geometry">
            <mxPoint x="1110" y="-110" as="sourcePoint" />
            <mxPoint x="1160" y="-160" as="targetPoint" />
          </mxGeometry>
        </mxCell>
        <mxCell id="8CCgLNO5WZxzkeO-txTk-43" value="" style="endArrow=none;dashed=1;html=1;dashPattern=1 3;strokeWidth=2;rounded=0;" edge="1" parent="1" source="8CCgLNO5WZxzkeO-txTk-37" target="8CCgLNO5WZxzkeO-txTk-39">
          <mxGeometry width="50" height="50" relative="1" as="geometry">
            <mxPoint x="1111" y="-260" as="sourcePoint" />
            <mxPoint x="1240" y="-260" as="targetPoint" />
          </mxGeometry>
        </mxCell>
        <mxCell id="8CCgLNO5WZxzkeO-txTk-44" value="" style="endArrow=none;dashed=1;html=1;dashPattern=1 3;strokeWidth=2;rounded=0;" edge="1" parent="1" source="8CCgLNO5WZxzkeO-txTk-40" target="8CCgLNO5WZxzkeO-txTk-37">
          <mxGeometry width="50" height="50" relative="1" as="geometry">
            <mxPoint x="1056" y="-260" as="sourcePoint" />
            <mxPoint x="923" y="-260" as="targetPoint" />
          </mxGeometry>
        </mxCell>
        <mxCell id="8CCgLNO5WZxzkeO-txTk-45" value="" style="endArrow=none;dashed=1;html=1;dashPattern=1 3;strokeWidth=2;rounded=0;" edge="1" parent="1" source="8CCgLNO5WZxzkeO-txTk-37" target="8CCgLNO5WZxzkeO-txTk-38">
          <mxGeometry width="50" height="50" relative="1" as="geometry">
            <mxPoint x="1083" y="-90" as="sourcePoint" />
            <mxPoint x="1083" y="-210" as="targetPoint" />
          </mxGeometry>
        </mxCell>
        <mxCell id="8CCgLNO5WZxzkeO-txTk-55" value="" style="fontColor=#0066CC;verticalAlign=top;verticalLabelPosition=bottom;labelPosition=center;align=center;html=1;outlineConnect=0;fillColor=#CCCCCC;strokeColor=#6881B3;gradientColor=none;gradientDirection=north;strokeWidth=2;shape=mxgraph.networks.radio_tower;" vertex="1" parent="1">
          <mxGeometry x="1046.78" y="400" width="55" height="100" as="geometry" />
        </mxCell>
        <mxCell id="8CCgLNO5WZxzkeO-txTk-56" value="" style="sketch=0;pointerEvents=1;shadow=0;dashed=0;html=1;strokeColor=none;fillColor=#505050;labelPosition=center;verticalLabelPosition=bottom;verticalAlign=top;outlineConnect=0;align=center;shape=mxgraph.office.devices.cell_phone_android_standalone;aspect=fixed;" vertex="1" parent="1">
          <mxGeometry x="1057.92" y="220" width="32.73" height="60" as="geometry" />
        </mxCell>
        <mxCell id="8CCgLNO5WZxzkeO-txTk-57" value="" style="sketch=0;pointerEvents=1;shadow=0;dashed=0;html=1;strokeColor=none;fillColor=#505050;labelPosition=center;verticalLabelPosition=bottom;verticalAlign=top;outlineConnect=0;align=center;shape=mxgraph.office.devices.cell_phone_generic;aspect=fixed;" vertex="1" parent="1">
          <mxGeometry x="881.0699999999999" y="420" width="33.19" height="60" as="geometry" />
        </mxCell>
        <mxCell id="8CCgLNO5WZxzkeO-txTk-58" value="" style="sketch=0;pointerEvents=1;shadow=0;dashed=0;html=1;strokeColor=none;fillColor=#505050;labelPosition=center;verticalLabelPosition=bottom;verticalAlign=top;outlineConnect=0;align=center;shape=mxgraph.office.devices.cell_phone_iphone_standalone;aspect=fixed;" vertex="1" parent="1">
          <mxGeometry x="1056.43" y="620" width="35.71" height="60" as="geometry" />
        </mxCell>
        <mxCell id="8CCgLNO5WZxzkeO-txTk-59" value="" style="sketch=0;pointerEvents=1;shadow=0;dashed=0;html=1;strokeColor=none;fillColor=#505050;labelPosition=center;verticalLabelPosition=bottom;verticalAlign=top;outlineConnect=0;align=center;shape=mxgraph.office.devices.cell_phone_windows_phone_standalone;aspect=fixed;" vertex="1" parent="1">
          <mxGeometry x="1231.07" y="420" width="34.29" height="60" as="geometry" />
        </mxCell>
        <mxCell id="8CCgLNO5WZxzkeO-txTk-60" value="" style="endArrow=none;dashed=1;html=1;dashPattern=1 3;strokeWidth=2;rounded=0;" edge="1" parent="1" source="8CCgLNO5WZxzkeO-txTk-55" target="8CCgLNO5WZxzkeO-txTk-59">
          <mxGeometry width="50" height="50" relative="1" as="geometry">
            <mxPoint x="1111.07" y="610" as="sourcePoint" />
            <mxPoint x="1161.07" y="560" as="targetPoint" />
          </mxGeometry>
        </mxCell>
        <mxCell id="8CCgLNO5WZxzkeO-txTk-61" value="" style="endArrow=none;dashed=1;html=1;dashPattern=1 3;strokeWidth=2;rounded=0;" edge="1" parent="1" source="8CCgLNO5WZxzkeO-txTk-55" target="8CCgLNO5WZxzkeO-txTk-57">
          <mxGeometry width="50" height="50" relative="1" as="geometry">
            <mxPoint x="1112.07" y="460" as="sourcePoint" />
            <mxPoint x="1241.07" y="460" as="targetPoint" />
          </mxGeometry>
        </mxCell>
        <mxCell id="8CCgLNO5WZxzkeO-txTk-62" value="" style="endArrow=none;dashed=1;html=1;dashPattern=1 3;strokeWidth=2;rounded=0;" edge="1" parent="1" source="8CCgLNO5WZxzkeO-txTk-58" target="8CCgLNO5WZxzkeO-txTk-55">
          <mxGeometry width="50" height="50" relative="1" as="geometry">
            <mxPoint x="1057.07" y="460" as="sourcePoint" />
            <mxPoint x="924.0699999999999" y="460" as="targetPoint" />
          </mxGeometry>
        </mxCell>
        <mxCell id="8CCgLNO5WZxzkeO-txTk-63" value="" style="endArrow=none;dashed=1;html=1;dashPattern=1 3;strokeWidth=2;rounded=0;" edge="1" parent="1" source="8CCgLNO5WZxzkeO-txTk-55" target="8CCgLNO5WZxzkeO-txTk-56">
          <mxGeometry width="50" height="50" relative="1" as="geometry">
            <mxPoint x="1084.07" y="630" as="sourcePoint" />
            <mxPoint x="1084.07" y="510" as="targetPoint" />
          </mxGeometry>
        </mxCell>
      </root>
    </mxGraphModel>
  </diagram>
  <diagram id="IFrE82XyqZmMMRZaEd5n" name="lora">
    <mxGraphModel dx="794" dy="1150" grid="1" gridSize="10" guides="1" tooltips="1" connect="1" arrows="1" fold="1" page="1" pageScale="1" pageWidth="850" pageHeight="1100" math="0" shadow="0">
      <root>
        <mxCell id="0" />
        <mxCell id="1" parent="0" />
        <mxCell id="Hoed8xQUnfSlb6AvqWIp-1" value="" style="fontColor=#0066CC;verticalAlign=top;verticalLabelPosition=bottom;labelPosition=center;align=center;html=1;outlineConnect=0;fillColor=#CCCCCC;strokeColor=#6881B3;gradientColor=none;gradientDirection=north;strokeWidth=2;shape=mxgraph.networks.radio_tower;" vertex="1" parent="1">
          <mxGeometry x="315.71" y="400" width="55" height="100" as="geometry" />
        </mxCell>
        <mxCell id="Hoed8xQUnfSlb6AvqWIp-2" value="" style="sketch=0;pointerEvents=1;shadow=0;dashed=0;html=1;strokeColor=none;fillColor=#505050;labelPosition=center;verticalLabelPosition=bottom;verticalAlign=top;outlineConnect=0;align=center;shape=mxgraph.office.devices.cell_phone_android_standalone;aspect=fixed;" vertex="1" parent="1">
          <mxGeometry x="325.36" y="160" width="32.73" height="60" as="geometry" />
        </mxCell>
        <mxCell id="Hoed8xQUnfSlb6AvqWIp-3" value="" style="sketch=0;pointerEvents=1;shadow=0;dashed=0;html=1;strokeColor=none;fillColor=#505050;labelPosition=center;verticalLabelPosition=bottom;verticalAlign=top;outlineConnect=0;align=center;shape=mxgraph.office.devices.cell_phone_generic;aspect=fixed;" vertex="1" parent="1">
          <mxGeometry x="150" y="420" width="33.19" height="60" as="geometry" />
        </mxCell>
        <mxCell id="Hoed8xQUnfSlb6AvqWIp-4" value="" style="sketch=0;pointerEvents=1;shadow=0;dashed=0;html=1;strokeColor=none;fillColor=#505050;labelPosition=center;verticalLabelPosition=bottom;verticalAlign=top;outlineConnect=0;align=center;shape=mxgraph.office.devices.cell_phone_iphone_standalone;aspect=fixed;" vertex="1" parent="1">
          <mxGeometry x="325.36" y="620" width="35.71" height="60" as="geometry" />
        </mxCell>
        <mxCell id="Hoed8xQUnfSlb6AvqWIp-5" value="" style="sketch=0;pointerEvents=1;shadow=0;dashed=0;html=1;strokeColor=none;fillColor=#505050;labelPosition=center;verticalLabelPosition=bottom;verticalAlign=top;outlineConnect=0;align=center;shape=mxgraph.office.devices.cell_phone_windows_phone_standalone;aspect=fixed;" vertex="1" parent="1">
          <mxGeometry x="880" y="680" width="34.29" height="60" as="geometry" />
        </mxCell>
        <mxCell id="Hoed8xQUnfSlb6AvqWIp-6" value="" style="endArrow=none;dashed=1;html=1;dashPattern=1 3;strokeWidth=2;rounded=0;" edge="1" parent="1" source="6Y66QdswEF-aHvUosaYa-2" target="Hoed8xQUnfSlb6AvqWIp-5">
          <mxGeometry width="50" height="50" relative="1" as="geometry">
            <mxPoint x="380" y="610" as="sourcePoint" />
            <mxPoint x="430" y="560" as="targetPoint" />
          </mxGeometry>
        </mxCell>
        <mxCell id="Hoed8xQUnfSlb6AvqWIp-7" value="" style="endArrow=none;dashed=1;html=1;dashPattern=1 3;strokeWidth=2;rounded=0;" edge="1" parent="1" source="Hoed8xQUnfSlb6AvqWIp-1" target="Hoed8xQUnfSlb6AvqWIp-3">
          <mxGeometry width="50" height="50" relative="1" as="geometry">
            <mxPoint x="381" y="460" as="sourcePoint" />
            <mxPoint x="510" y="460" as="targetPoint" />
          </mxGeometry>
        </mxCell>
        <mxCell id="Hoed8xQUnfSlb6AvqWIp-8" value="" style="endArrow=none;dashed=1;html=1;dashPattern=1 3;strokeWidth=2;rounded=0;" edge="1" parent="1" source="Hoed8xQUnfSlb6AvqWIp-4" target="Hoed8xQUnfSlb6AvqWIp-1">
          <mxGeometry width="50" height="50" relative="1" as="geometry">
            <mxPoint x="326" y="460" as="sourcePoint" />
            <mxPoint x="193" y="460" as="targetPoint" />
          </mxGeometry>
        </mxCell>
        <mxCell id="Hoed8xQUnfSlb6AvqWIp-9" value="" style="endArrow=none;dashed=1;html=1;dashPattern=1 3;strokeWidth=2;rounded=0;" edge="1" parent="1" source="6Y66QdswEF-aHvUosaYa-1" target="Hoed8xQUnfSlb6AvqWIp-2">
          <mxGeometry width="50" height="50" relative="1" as="geometry">
            <mxPoint x="353" y="630" as="sourcePoint" />
            <mxPoint x="353" y="510" as="targetPoint" />
          </mxGeometry>
        </mxCell>
        <mxCell id="6Y66QdswEF-aHvUosaYa-1" value="" style="fontColor=#0066CC;verticalAlign=top;verticalLabelPosition=bottom;labelPosition=center;align=center;html=1;outlineConnect=0;fillColor=#CCCCCC;strokeColor=#6881B3;gradientColor=none;gradientDirection=north;strokeWidth=2;shape=mxgraph.networks.radio_tower;" vertex="1" parent="1">
          <mxGeometry x="570" y="140" width="55" height="100" as="geometry" />
        </mxCell>
        <mxCell id="6Y66QdswEF-aHvUosaYa-2" value="" style="fontColor=#0066CC;verticalAlign=top;verticalLabelPosition=bottom;labelPosition=center;align=center;html=1;outlineConnect=0;fillColor=#CCCCCC;strokeColor=#6881B3;gradientColor=none;gradientDirection=north;strokeWidth=2;shape=mxgraph.networks.radio_tower;" vertex="1" parent="1">
          <mxGeometry x="640" y="660" width="55" height="100" as="geometry" />
        </mxCell>
        <mxCell id="6Y66QdswEF-aHvUosaYa-3" value="" style="endArrow=none;dashed=1;html=1;dashPattern=1 3;strokeWidth=2;rounded=0;" edge="1" parent="1" source="6Y66QdswEF-aHvUosaYa-1" target="Hoed8xQUnfSlb6AvqWIp-1">
          <mxGeometry width="50" height="50" relative="1" as="geometry">
            <mxPoint x="580" y="206" as="sourcePoint" />
            <mxPoint x="370" y="256" as="targetPoint" />
          </mxGeometry>
        </mxCell>
        <mxCell id="6Y66QdswEF-aHvUosaYa-4" value="" style="endArrow=none;dashed=1;html=1;dashPattern=1 3;strokeWidth=2;rounded=0;" edge="1" parent="1" source="6Y66QdswEF-aHvUosaYa-2" target="6Y66QdswEF-aHvUosaYa-1">
          <mxGeometry width="50" height="50" relative="1" as="geometry">
            <mxPoint x="590" y="216" as="sourcePoint" />
            <mxPoint x="380" y="266" as="targetPoint" />
          </mxGeometry>
        </mxCell>
        <mxCell id="6Y66QdswEF-aHvUosaYa-5" value="" style="endArrow=none;dashed=1;html=1;dashPattern=1 3;strokeWidth=2;rounded=0;" edge="1" parent="1" source="6Y66QdswEF-aHvUosaYa-2" target="Hoed8xQUnfSlb6AvqWIp-1">
          <mxGeometry width="50" height="50" relative="1" as="geometry">
            <mxPoint x="600" y="226" as="sourcePoint" />
            <mxPoint x="390" y="276" as="targetPoint" />
          </mxGeometry>
        </mxCell>
      </root>
    </mxGraphModel>
  </diagram>
</mxfile>
